# xmcd
#
# Track frame offsets: 
#        150
#        20319
#        42537
#        69780
#        93455
#        110915
#        132357
#        153865
#        172990
#        198415
#        218137
#        244540
#        268002
#
# Disc length: 3845 seconds
#
# Revision: 0
# Processed by: cddbd v1.5.2PL0 Copyright (c) Steve Scherf et al.
# Submitted via: ExactAudioCopy v0.99pb4
#
DISCID=b00f030d
DTITLE=Cup-a-Jo - Straight Up
DYEAR=1999
DGENRE=Blues
TTITLE0=Angel Is The Devil
TTITLE1=Straight Up
TTITLE2=On My Mind
TTITLE3=I Was Wrong
TTITLE4=Baby
TTITLE5=Point Of View
TTITLE6=Sophia
TTITLE7=Wait
TTITLE8=Lucky Leroux
TTITLE9=Funky Monkey
TTITLE10=In The City
TTITLE11=Measure of A Man
TTITLE12=Ain't No Perfect World
EXTD=
EXTT0=
EXTT1=
EXTT2=
EXTT3=
EXTT4=
EXTT5=
EXTT6=
EXTT7=
EXTT8=
EXTT9=
EXTT10=
EXTT11=
EXTT12=
PLAYORDER=
